<svg fill="#70C041" xmlns="http://www.w3.org/2000/svg" xmlns:xlink="http://www.w3.org/1999/xlink" version="1.1" x="0px" y="0px" viewBox="0 0 512 512" enable-background="new 0 0 512 512" xml:space="preserve"><g><path d="M2,2v98.3v16.4V510h508V116.7v-16.4V2H2z M493.6,493.6H18.4V116.7h475.2V493.6z M18.4,100.3V18.4h475.2v81.9H18.4z"/><rect x="43" y="51.2" width="16.4" height="16.4"/><rect x="75.7" y="51.2" width="16.4" height="16.4"/><rect x="108.5" y="51.2" width="16.4" height="16.4"/><rect x="182.3" y="51.2" width="286.8" height="16.4"/><path d="M182.3,149.5H51.2v163.9h131.1V149.5z M165.9,297H67.5V165.9h98.3V297z"/><path d="M329.7,460.8h131.1V346.1H329.7V460.8z M346.1,362.5h98.3v81.9h-98.3V362.5z"/><path d="M297,346.1H51.2v114.7H297V346.1z M280.6,444.5h-213v-81.9h213V444.5z"/><rect x="215" y="149.5" width="245.8" height="16.4"/><rect x="215" y="223.2" width="245.8" height="16.4"/><rect x="215" y="297" width="245.8" height="16.4"/><rect x="165.9" y="395.3" width="16.4" height="16.4"/><rect x="198.6" y="395.3" width="16.4" height="16.4"/><rect x="133.1" y="395.3" width="16.4" height="16.4"/></g></svg>